<svg viewBox="0 0 2100 1180" xmlns="http://www.w3.org/2000/svg" font-family="'Times New Roman',Georgia,serif">
<rect x="0" y="0" width="2100" height="1180" fill="#ffffff"/>
<text x="1050.0" y="56" text-anchor="middle" font-size="24" font-weight="700" fill="#101414">Figure. FMECA-IPS Pipeline Flowchart</text>
<defs>
  <marker id="ah" markerWidth="8" markerHeight="8" refX="6.5" refY="3.5" orient="auto"><path d="M0,0 L7,3.5 L0,7 Z" fill="#101414"/></marker>
</defs><rect x="175.0" y="95.0" width="170" height="42" rx="21.0" fill="#ffffff" stroke="#101414" stroke-width="1.6"/><text x="260" y="121" text-anchor="middle" font-size="13.5" fill="#101414" font-weight="700" >Start</text><path d="M260,137.0 L260,151.0" stroke="#101414" stroke-width="1.6" fill="none" marker-end="url(#ah)"/><rect x="60.0" y="148.0" width="400" height="52" fill="#ffffff" stroke="#101414" stroke-width="1.6"/><text x="260" y="170.0" text-anchor="middle" font-size="12.5" fill="#101414">Load config.yaml</text><text x="260" y="186.0" text-anchor="middle" font-size="12.5" fill="#101414">(parse failure_modes, assumptions, content)</text><path d="M260,200.0 L260,214.0" stroke="#101414" stroke-width="1.6" fill="none" marker-end="url(#ah)"/><rect x="60.0" y="214.0" width="400" height="34" fill="#ffffff" stroke="#101414" stroke-width="1.6"/><text x="260" y="235.0" text-anchor="middle" font-size="12.5" fill="#101414">mode = next failure mode</text><path d="M260,248.0 L260,262.0" stroke="#101414" stroke-width="1.6" fill="none" marker-end="url(#ah)"/><rect x="60.0" y="262.0" width="400" height="54" fill="#ffffff" stroke="#101414" stroke-width="1.6"/><text x="260" y="285.0" text-anchor="middle" font-size="12.5" fill="#101414">Load events / readouts / groups CSV</text><text x="260" y="301.0" text-anchor="middle" font-size="12.5" fill="#101414">(mode-specific columns and counters)</text><path d="M260,316.0 L260,330.0" stroke="#101414" stroke-width="1.6" fill="none" marker-end="url(#ah)"/><rect x="60.0" y="330.0" width="400" height="68" fill="#ffffff" stroke="#101414" stroke-width="1.6"/><text x="260" y="352.0" text-anchor="middle" font-size="12.5" fill="#101414">6-step cleansing: sync -&gt; drift removal</text><text x="260" y="368.0" text-anchor="middle" font-size="12.5" fill="#101414">-&gt; segmentation -&gt; missing/outlier -&gt;</text><text x="260" y="384.0" text-anchor="middle" font-size="12.5" fill="#101414">code reconcile -&gt; labeling</text><path d="M260,398.0 L260,412.0" stroke="#101414" stroke-width="1.6" fill="none" marker-end="url(#ah)"/><rect x="60.0" y="412.0" width="400" height="52" fill="#ffffff" stroke="#101414" stroke-width="1.6"/><text x="260" y="434.0" text-anchor="middle" font-size="12.5" fill="#101414">Per asset: rate(t) -&gt; z(t) -&gt; anomaly(t)</text><text x="260" y="450.0" text-anchor="middle" font-size="12.5" fill="#101414">-&gt; t*, lead_time</text><path d="M260,464.0 L260,484.0" stroke="#101414" stroke-width="1.6" fill="none" marker-end="url(#ah)"/><rect x="60.0" y="484.0" width="400" height="34" fill="#ffffff" stroke="#101414" stroke-width="1.6"/><text x="260" y="505.0" text-anchor="middle" font-size="12.5" fill="#101414">group = next group in this mode</text><path d="M260,518.0 L260,532.0" stroke="#101414" stroke-width="1.6" fill="none" marker-end="url(#ah)"/><rect x="60.0" y="532.0" width="400" height="54" fill="#ffffff" stroke="#101414" stroke-width="1.6"/><text x="260" y="555.0" text-anchor="middle" font-size="12.5" fill="#101414">Compute O, S, D  (guide word + error %,</text><text x="260" y="571.0" text-anchor="middle" font-size="12.5" fill="#101414">detection rate, binomial test)</text><path d="M260,586.0 L260,606.0" stroke="#101414" stroke-width="1.6" fill="none" marker-end="url(#ah)"/><polygon points="260,606.0 390.0,644.0 260,682.0 130.0,644.0" fill="#ffffff" stroke="#101414" stroke-width="1.6"/><text x="260" y="640.0" text-anchor="middle" font-size="12" fill="#101414">Other groups</text><text x="260" y="656.0" text-anchor="middle" font-size="12" fill="#101414">in this mode?</text><text x="398.0" y="641.0" text-anchor="start" font-size="11" fill="#101414" font-weight="700" >YES</text><text x="270" y="698.0" text-anchor="start" font-size="11" fill="#101414" font-weight="700" >NO</text><path d="M390.0,644.0 L480.0,644.0" stroke="#101414" stroke-width="1.6" fill="none" /><path d="M480.0,644.0 L480.0,501.0" stroke="#101414" stroke-width="1.6" fill="none" /><path d="M480.0,501.0 L460.0,501.0" stroke="#101414" stroke-width="1.6" fill="none" marker-end="url(#ah)"/><path d="M260,682.0 L260,704.0" stroke="#101414" stroke-width="1.6" fill="none" marker-end="url(#ah)"/><polygon points="260,704.0 390.0,742.0 260,780.0 130.0,742.0" fill="#ffffff" stroke="#101414" stroke-width="1.6"/><text x="260" y="738.0" text-anchor="middle" font-size="12" fill="#101414">Other failure</text><text x="260" y="754.0" text-anchor="middle" font-size="12" fill="#101414">modes?</text><text x="398.0" y="739.0" text-anchor="start" font-size="11" fill="#101414" font-weight="700" >YES</text><text x="270" y="796.0" text-anchor="start" font-size="11" fill="#101414" font-weight="700" >NO</text><path d="M390.0,742.0 L510.0,742.0" stroke="#101414" stroke-width="1.6" fill="none" /><path d="M510.0,742.0 L510.0,231.0" stroke="#101414" stroke-width="1.6" fill="none" /><path d="M510.0,231.0 L460.0,231.0" stroke="#101414" stroke-width="1.6" fill="none" marker-end="url(#ah)"/><path d="M260,780.0 L260,800.0" stroke="#101414" stroke-width="1.6" fill="none" marker-end="url(#ah)"/><rect x="60.0" y="800.0" width="400" height="52" fill="#ffffff" stroke="#101414" stroke-width="1.6"/><text x="260" y="822.0" text-anchor="middle" font-size="12.5" fill="#101414">Combine all (failure_mode, group) rows;</text><text x="260" y="838.0" text-anchor="middle" font-size="12.5" fill="#101414">RPN = O×S×D   RI = 0.4O+0.4S+0.2D</text><path d="M260,852.0 L260,866.0" stroke="#101414" stroke-width="1.6" fill="none" marker-end="url(#ah)"/><polygon points="78.0,866.0 460.0,866.0 442.0,918.0 60.0,918.0" fill="#ffffff" stroke="#101414" stroke-width="1.6"/><text x="260" y="888.0" text-anchor="middle" font-size="12.5" fill="#101414">Save fmeca_worksheet.csv etc. to outputs/</text><text x="260" y="904.0" text-anchor="middle" font-size="12.5" fill="#101414">(01_pipeline.py ends)</text><rect x="580.0" y="90.0" width="400" height="52" fill="#ffffff" stroke="#101414" stroke-width="1.6"/><text x="780" y="112.0" text-anchor="middle" font-size="12.5" fill="#101414">row = next worksheet row</text><text x="780" y="128.0" text-anchor="middle" font-size="12.5" fill="#101414">(failure_mode, group)</text><path d="M780,142.0 L780,166.0" stroke="#101414" stroke-width="1.6" fill="none" marker-end="url(#ah)"/><polygon points="780,166.0 930.0,204.0 780,242.0 630.0,204.0" fill="#ffffff" stroke="#101414" stroke-width="1.6"/><text x="780" y="200.0" text-anchor="middle" font-size="12" fill="#101414">Significant (p&lt;.05) &amp;</text><text x="780" y="216.0" text-anchor="middle" font-size="12" fill="#101414">detection rate &gt;= 50%?</text><text x="624" y="200.0" text-anchor="end" font-size="10.5" fill="#101414" font-weight="700" >YES</text><text x="936" y="200.0" text-anchor="start" font-size="10.5" fill="#101414" font-weight="700" >NO</text><path d="M630,204.0 L640,264.0" stroke="#101414" stroke-width="1.6" fill="none" marker-end="url(#ah)"/><rect x="575.0" y="264.0" width="130" height="38" fill="#ffffff" stroke="#101414" stroke-width="1.6"/><text x="640" y="279.0" text-anchor="middle" font-size="12.5" fill="#101414">RCM = CBM</text><text x="640" y="295.0" text-anchor="middle" font-size="12.5" fill="#101414">(condition-based)</text><polygon points="780,307.0 885.0,338.0 780,369.0 675.0,338.0" fill="#ffffff" stroke="#101414" stroke-width="1.6"/><text x="780" y="342.0" text-anchor="middle" font-size="12" fill="#101414">S &gt;= 5?</text><text x="669" y="334.0" text-anchor="end" font-size="10.5" fill="#101414" font-weight="700" >YES</text><text x="891" y="334.0" text-anchor="start" font-size="10.5" fill="#101414" font-weight="700" >NO</text><path d="M675,338.0 L620,389.0" stroke="#101414" stroke-width="1.6" fill="none" marker-end="url(#ah)"/><path d="M885,338.0 L940,389.0" stroke="#101414" stroke-width="1.6" fill="none" marker-end="url(#ah)"/><rect x="550.0" y="389.0" width="140" height="38" fill="#ffffff" stroke="#101414" stroke-width="1.6"/><text x="620" y="404.0" text-anchor="middle" font-size="12.5" fill="#101414">RCM = Hard-Time</text><text x="620" y="420.0" text-anchor="middle" font-size="12.5" fill="#101414">(time-based)</text><rect x="870.0" y="389.0" width="140" height="38" fill="#ffffff" stroke="#101414" stroke-width="1.6"/><text x="940" y="404.0" text-anchor="middle" font-size="12.5" fill="#101414">RCM = RTF</text><text x="940" y="420.0" text-anchor="middle" font-size="12.5" fill="#101414">(run-to-failure)</text><path d="M620,427.0 L780,447.0" stroke="#101414" stroke-width="1.6" fill="none" marker-end="url(#ah)"/><path d="M940,427.0 L780,447.0" stroke="#101414" stroke-width="1.6" fill="none" marker-end="url(#ah)"/><path d="M640,302.0 L550,302.0" stroke="#101414" stroke-width="1.6" fill="none" /><path d="M550,302.0 L550,447.0 L780,447.0" stroke="#101414" stroke-width="1.6" fill="none" marker-end="url(#ah)"/><text x="542" y="365.0" text-anchor="middle" font-size="8.5" fill="#101414"  font-style="italic">CBM merges here</text><path d="M780,142.0 L780,166.0" stroke="#101414" stroke-width="1.6" fill="none" marker-end="url(#ah)"/><path d="M780,447.0 L780,467.0" stroke="#101414" stroke-width="1.6" fill="none" marker-end="url(#ah)"/><polygon points="780,467.0 920.0,501.0 780,535.0 640.0,501.0" fill="#ffffff" stroke="#101414" stroke-width="1.6"/><text x="780" y="505.0" text-anchor="middle" font-size="12" fill="#101414">O &gt;= 8?</text><path d="M640,501.0 L635,555.0" stroke="#101414" stroke-width="1.6" fill="none" marker-end="url(#ah)"/><path d="M920,501.0 L925,555.0" stroke="#101414" stroke-width="1.6" fill="none" marker-end="url(#ah)"/><text x="633.5" y="523.0" text-anchor="end" font-size="10.5" fill="#101414" font-weight="700" >YES</text><text x="926.5" y="523.0" text-anchor="start" font-size="10.5" fill="#101414" font-weight="700" >NO</text><rect x="555.0" y="555.0" width="160" height="44" fill="#ffffff" stroke="#101414" stroke-width="1.6"/><text x="635" y="573.0" text-anchor="middle" font-size="12.5" fill="#101414">LORA = elevate</text><text x="635" y="589.0" text-anchor="middle" font-size="12.5" fill="#101414">depot priority</text><rect x="845.0" y="555.0" width="160" height="44" fill="#ffffff" stroke="#101414" stroke-width="1.6"/><text x="925" y="573.0" text-anchor="middle" font-size="12.5" fill="#101414">LORA = standard</text><text x="925" y="589.0" text-anchor="middle" font-size="12.5" fill="#101414">2-level</text><path d="M635,599.0 L780,617.0" stroke="#101414" stroke-width="1.6" fill="none" marker-end="url(#ah)"/><path d="M925,599.0 L780,617.0" stroke="#101414" stroke-width="1.6" fill="none" marker-end="url(#ah)"/><path d="M780,617.0 L780,637.0" stroke="#101414" stroke-width="1.6" fill="none" marker-end="url(#ah)"/><rect x="580.0" y="637.0" width="400" height="52" fill="#ffffff" stroke="#101414" stroke-width="1.6"/><text x="780" y="659.0" text-anchor="middle" font-size="12.5" fill="#101414">Compute supply requirement</text><text x="780" y="675.0" text-anchor="middle" font-size="12.5" fill="#101414">(assumption + measured O)</text><path d="M780,689.0 L780,707.0" stroke="#101414" stroke-width="1.6" fill="none" marker-end="url(#ah)"/><polygon points="780,707.0 920.0,741.0 780,775.0 640.0,741.0" fill="#ffffff" stroke="#101414" stroke-width="1.6"/><text x="780" y="737.0" text-anchor="middle" font-size="12" fill="#101414">Significant &amp; lead</text><text x="780" y="753.0" text-anchor="middle" font-size="12" fill="#101414">time available?</text><path d="M640,741.0 L635,795.0" stroke="#101414" stroke-width="1.6" fill="none" marker-end="url(#ah)"/><path d="M920,741.0 L925,795.0" stroke="#101414" stroke-width="1.6" fill="none" marker-end="url(#ah)"/><text x="633.5" y="763.0" text-anchor="end" font-size="10.5" fill="#101414" font-weight="700" >YES</text><text x="926.5" y="763.0" text-anchor="start" font-size="10.5" fill="#101414" font-weight="700" >NO</text><rect x="555.0" y="795.0" width="160" height="44" fill="#ffffff" stroke="#101414" stroke-width="1.6"/><text x="635" y="813.0" text-anchor="middle" font-size="12.5" fill="#101414">IETM = pre-emptive</text><text x="635" y="829.0" text-anchor="middle" font-size="12.5" fill="#101414">SLA = lead x 0.5</text><rect x="845.0" y="795.0" width="160" height="44" fill="#ffffff" stroke="#101414" stroke-width="1.6"/><text x="925" y="813.0" text-anchor="middle" font-size="12.5" fill="#101414">IETM = enhanced</text><text x="925" y="829.0" text-anchor="middle" font-size="12.5" fill="#101414">periodic inspection</text><path d="M635,839.0 L780,857.0" stroke="#101414" stroke-width="1.6" fill="none" marker-end="url(#ah)"/><path d="M925,839.0 L780,857.0" stroke="#101414" stroke-width="1.6" fill="none" marker-end="url(#ah)"/><polygon points="1300,82.0 1440.0,116 1300,150.0 1160.0,116" fill="#ffffff" stroke="#101414" stroke-width="1.6"/><text x="1300" y="112.0" text-anchor="middle" font-size="12" fill="#101414">RPN rank 1 / O=10 /</text><text x="1300" y="128.0" text-anchor="middle" font-size="12" fill="#101414">not significant?</text><path d="M1160,116 L1155,170.0" stroke="#101414" stroke-width="1.6" fill="none" marker-end="url(#ah)"/><path d="M1440,116 L1445,170.0" stroke="#101414" stroke-width="1.6" fill="none" marker-end="url(#ah)"/><text x="1153.5" y="138.0" text-anchor="end" font-size="10.5" fill="#101414" font-weight="700" >YES</text><text x="1446.5" y="138.0" text-anchor="start" font-size="10.5" fill="#101414" font-weight="700" >NO</text><rect x="1075.0" y="170.0" width="160" height="44" fill="#ffffff" stroke="#101414" stroke-width="1.6"/><text x="1155" y="188.0" text-anchor="middle" font-size="12.5" fill="#101414">ECP = candidate</text><text x="1155" y="204.0" text-anchor="middle" font-size="12.5" fill="#101414">(design change)</text><rect x="1365.0" y="170.0" width="160" height="44" fill="#ffffff" stroke="#101414" stroke-width="1.6"/><text x="1445" y="188.0" text-anchor="middle" font-size="12.5" fill="#101414">ECP = no change</text><text x="1445" y="204.0" text-anchor="middle" font-size="12.5" fill="#101414">(no trigger)</text><path d="M1155,214.0 L1300,232.0" stroke="#101414" stroke-width="1.6" fill="none" marker-end="url(#ah)"/><path d="M1445,214.0 L1300,232.0" stroke="#101414" stroke-width="1.6" fill="none" marker-end="url(#ah)"/><path d="M1300,232.0 L1300,250.0" stroke="#101414" stroke-width="1.6" fill="none" marker-end="url(#ah)"/><rect x="1100.0" y="250.0" width="400" height="34" fill="#ffffff" stroke="#101414" stroke-width="1.6"/><text x="1300" y="271.0" text-anchor="middle" font-size="12.5" fill="#101414">Save result row</text><path d="M1300,284.0 L1300,306.0" stroke="#101414" stroke-width="1.6" fill="none" marker-end="url(#ah)"/><polygon points="1300,306.0 1430.0,344.0 1300,382.0 1170.0,344.0" fill="#ffffff" stroke="#101414" stroke-width="1.6"/><text x="1300" y="340.0" text-anchor="middle" font-size="12" fill="#101414">Other worksheet</text><text x="1300" y="356.0" text-anchor="middle" font-size="12" fill="#101414">rows?</text><text x="1438" y="341.0" text-anchor="start" font-size="11" fill="#101414" font-weight="700" >YES</text><text x="1310" y="398.0" text-anchor="start" font-size="11" fill="#101414" font-weight="700" >NO</text><path d="M1430,344.0 L1550,344.0" stroke="#101414" stroke-width="1.6" fill="none" /><path d="M1550,344.0 L1550,76" stroke="#101414" stroke-width="1.6" fill="none" /><path d="M1550,76 L780,76" stroke="#101414" stroke-width="1.6" fill="none" /><path d="M780,76 L780,90.0" stroke="#101414" stroke-width="1.6" fill="none" marker-end="url(#ah)"/><path d="M1300,382.0 L1300,402.0" stroke="#101414" stroke-width="1.6" fill="none" marker-end="url(#ah)"/><polygon points="1118.0,402.0 1500.0,402.0 1482.0,454.0 1100.0,454.0" fill="#ffffff" stroke="#101414" stroke-width="1.6"/><text x="1300" y="424.0" text-anchor="middle" font-size="12.5" fill="#101414">Save lifecycle.csv/json</text><text x="1300" y="440.0" text-anchor="middle" font-size="12.5" fill="#101414">(02_lifecycle.py ends)</text><path d="M1300,454.0 L1300,472.0" stroke="#101414" stroke-width="1.6" fill="none" marker-end="url(#ah)"/><rect x="1100.0" y="472.0" width="400" height="68" fill="#ffffff" stroke="#101414" stroke-width="1.6"/><text x="1300" y="494.0" text-anchor="middle" font-size="12.5" fill="#101414">Auto-select sample assets per mode</text><text x="1300" y="510.0" text-anchor="middle" font-size="12.5" fill="#101414">(1 detected + 1 missed); recompute -&gt;</text><text x="1300" y="526.0" text-anchor="middle" font-size="12.5" fill="#101414">transform_sample.json</text><polygon points="1638.0,90.0 2020.0,90.0 2002.0,142.0 1620.0,142.0" fill="#ffffff" stroke="#101414" stroke-width="1.6"/><text x="1820" y="112.0" text-anchor="middle" font-size="12.5" fill="#101414">Generate dataset / fmeca / lifecycle /</text><text x="1820" y="128.0" text-anchor="middle" font-size="12.5" fill="#101414">events / cleansing.json</text><path d="M1820,142.0 L1820,160.0" stroke="#101414" stroke-width="1.6" fill="none" marker-end="url(#ah)"/><polygon points="1638.0,160.0 2020.0,160.0 2002.0,198.0 1620.0,198.0" fill="#ffffff" stroke="#101414" stroke-width="1.6"/><text x="1820" y="183.0" text-anchor="middle" font-size="12.5" fill="#101414">Copy app_data/ -&gt; app/data/</text><path d="M1820,198.0 L1820,220.0" stroke="#101414" stroke-width="1.6" fill="none" marker-end="url(#ah)"/><polygon points="1820,220.0 1960.0,254.0 1820,288.0 1680.0,254.0" fill="#ffffff" stroke="#101414" stroke-width="1.6"/><text x="1820" y="250.0" text-anchor="middle" font-size="12" fill="#101414">ECP candidate</text><text x="1820" y="266.0" text-anchor="middle" font-size="12" fill="#101414">exists?</text><path d="M1680,254.0 L1675,308.0" stroke="#101414" stroke-width="1.6" fill="none" marker-end="url(#ah)"/><path d="M1960,254.0 L1965,308.0" stroke="#101414" stroke-width="1.6" fill="none" marker-end="url(#ah)"/><text x="1673.5" y="276.0" text-anchor="end" font-size="10.5" fill="#101414" font-weight="700" >YES</text><text x="1966.5" y="276.0" text-anchor="start" font-size="10.5" fill="#101414" font-weight="700" >NO</text><rect x="1580.0" y="308.0" width="190" height="44" fill="#ffffff" stroke="#101414" stroke-width="1.6"/><text x="1675" y="326.0" text-anchor="middle" font-size="12.5" fill="#101414">Recompute O', D' -&gt;</text><text x="1675" y="342.0" text-anchor="middle" font-size="12.5" fill="#101414">RPN', RCM', etc.</text><rect x="1870.0" y="308.0" width="190" height="44" fill="#ffffff" stroke="#101414" stroke-width="1.6"/><text x="1965" y="326.0" text-anchor="middle" font-size="12.5" fill="#101414">(straight to End)</text><text x="1965" y="342.0" text-anchor="middle" font-size="12.5" fill="#101414"></text><path d="M1675,352.0 L1820,370.0" stroke="#101414" stroke-width="1.6" fill="none" marker-end="url(#ah)"/><path d="M1965,352.0 L1820,370.0" stroke="#101414" stroke-width="1.6" fill="none" marker-end="url(#ah)"/><rect x="1735.0" y="394.0" width="170" height="42" rx="21.0" fill="#ffffff" stroke="#101414" stroke-width="1.6"/><text x="1820" y="420.0" text-anchor="middle" font-size="13.5" fill="#101414" font-weight="700" >End</text><path d="M1820,370.0 L1820,392.0" stroke="#101414" stroke-width="1.6" fill="none" marker-end="url(#ah)"/><path d="M260,918.0 L260,1120 L780,1120 L780,90.0" stroke="#101414" stroke-width="1.6" fill="none" marker-end="url(#ah)"/><path d="M780,857.0 L780,1140 L1300,1140 L1300,82.0" stroke="#101414" stroke-width="1.6" fill="none" marker-end="url(#ah)"/><path d="M1300,540.0 L1300,1160 L1820,1160 L1820,90.0" stroke="#101414" stroke-width="1.6" fill="none" marker-end="url(#ah)"/><text x="260" y="102" text-anchor="middle" font-size="12" fill="#55635e"  font-style="italic">01_pipeline.py — cleansing + O/S/D</text><text x="780" y="102" text-anchor="middle" font-size="12" fill="#55635e"  font-style="italic">02_lifecycle.py — RCM / LORA / supply / IETM</text><text x="1300" y="102" text-anchor="middle" font-size="12" fill="#55635e"  font-style="italic">02_lifecycle.py — ECP + row loop</text><text x="1820" y="102" text-anchor="middle" font-size="12" fill="#55635e"  font-style="italic">04 + 03 export, then feedback (web app)</text>
</svg>